<svg xmlns="http://www.w3.org/2000/svg" xmlns:xlink="http://www.w3.org/1999/xlink" width="500" zoomAndPan="magnify" viewBox="0 0 375 374.999991" height="500" preserveAspectRatio="xMidYMid meet" version="1.0"><defs><g/><clipPath id="0f532b8657"><path d="M 15.324219 123.355469 L 141.710938 123.355469 L 141.710938 257.175781 L 15.324219 257.175781 Z M 15.324219 123.355469 " clip-rule="nonzero"/></clipPath></defs><g clip-path="url(#0f532b8657)"><path fill="#d71920" d="M 60.152344 232.558594 L 73.851562 218.234375 C 78.761719 219.667969 83.441406 221.464844 87.867188 223.511719 L 85.390625 226.25 C 98.28125 232.683594 108.613281 240.0625 116.878906 247.609375 C 119.195312 246.21875 121.417969 244.6875 123.539062 243.03125 C 111.097656 231.574219 86.28125 213.105469 55.121094 212.457031 L 67.449219 199.566406 C 72.542969 200.777344 77.394531 202.40625 81.992188 204.339844 L 80.355469 206.148438 C 101.363281 216.628906 115.566406 229.625 125.117188 241.761719 C 126.699219 240.449219 128.21875 239.070312 129.671875 237.621094 C 116.773438 222.230469 92.777344 199.875 59.652344 195.609375 L 113.664062 146.59375 C 113.664062 146.59375 127.625 148.457031 141.636719 159.117188 C 130.421875 137.855469 108.089844 123.359375 82.363281 123.359375 C 45.378906 123.359375 15.402344 153.316406 15.402344 190.265625 C 15.402344 227.21875 45.378906 257.171875 82.363281 257.171875 C 93.636719 257.171875 104.257812 254.386719 113.582031 249.46875 C 100.222656 241.242188 79.886719 231.4375 60.152344 232.558594 " fill-opacity="1" fill-rule="nonzero"/></g><path stroke-linecap="butt" transform="matrix(1.037199, 0, 0, 1.037199, 108.707825, 151.978437)" fill="none" stroke-linejoin="miter" d="M 65.718616 54.93131 C 64.468253 55.744799 62.980623 56.426473 61.251958 56.972565 C 59.534592 57.529956 57.482038 57.951765 55.094297 58.237993 C 54.887158 56.102583 54.597165 53.869254 54.224315 51.545538 C 53.8477 49.218055 53.376931 46.845378 52.804475 44.423741 C 50.529719 44.457636 48.484697 44.529193 46.669411 44.642178 C 44.857891 44.74763 43.151824 44.909575 41.554975 45.124246 C 40.982519 46.721095 40.391233 48.250153 39.784882 49.707655 C 39.186064 51.165156 38.587245 52.498374 37.984661 53.70731 C 36.240932 53.417316 34.595123 52.859925 33.051 52.027605 C 31.506877 51.191519 30.286643 50.208553 29.394064 49.071175 C 32.135824 43.983101 34.519799 38.8536 36.542224 33.682671 C 38.564649 28.507976 40.677461 21.99253 42.880661 14.136333 C 44.628156 14.136333 46.202408 14.219189 47.607183 14.384899 C 49.015725 14.543078 50.56738 14.833072 52.269682 15.258647 C 55.369226 20.162179 58.054494 25.995951 60.32925 32.756197 C 62.604007 39.50891 64.400463 46.90187 65.718616 54.93131 Z M 47.309657 26.34997 C 46.850187 28.093699 46.330457 29.94288 45.758002 31.897514 C 45.196845 33.848382 44.590494 35.840677 43.950248 37.8744 C 45.166716 37.689858 46.349288 37.546744 47.505497 37.445058 C 48.65794 37.339606 49.821682 37.264283 50.992956 37.222855 C 50.386605 35.234326 49.776488 33.332418 49.170137 31.520899 C 48.571319 29.705613 47.949903 27.980714 47.309657 26.34997 Z M 95.260326 37.757649 C 95.260326 42.062363 93.614516 45.689169 90.322898 48.641833 C 87.035046 51.590731 83.005262 53.067064 78.241077 53.067064 C 76.497348 53.067064 74.727256 52.799667 72.930801 52.261107 C 71.141878 51.730079 69.375552 50.931654 67.631822 49.865833 C 67.168585 45.77579 66.822099 41.550166 66.588598 37.181427 C 66.362629 32.808923 66.249644 28.18032 66.249644 23.303151 C 66.249644 21.179041 66.257176 19.578425 66.276007 18.512604 C 66.294838 17.443016 66.321201 16.444986 66.355096 15.518512 C 68.377521 14.528013 70.490333 13.76725 72.693533 13.239989 C 74.900499 12.701429 77.088634 12.434032 79.257939 12.434032 C 83.596548 12.434032 86.903231 13.187263 89.177987 14.69749 C 91.452744 16.207718 92.590123 18.388321 92.590123 21.235533 C 92.590123 22.967964 92.205975 24.542216 91.445212 25.946991 C 90.680683 27.351766 89.550837 28.572 88.05944 29.603926 C 90.334197 30.281834 92.100523 31.340123 93.358418 32.78256 C 94.623846 34.213698 95.260326 35.870806 95.260326 37.757649 Z M 82.188006 22.719397 C 82.188006 21.295791 81.796326 20.22997 81.012966 19.529465 C 80.233372 18.817662 79.077163 18.459878 77.551871 18.459878 L 77.393693 18.459878 C 77.212917 20.448407 77.054739 22.339016 76.92669 24.135471 C 76.806173 25.935693 76.708253 27.649293 76.640462 29.280037 C 78.455748 28.888357 79.830394 28.123828 80.768166 26.990216 C 81.713471 25.852837 82.188006 24.429231 82.188006 22.719397 Z M 76.482283 45.918904 C 76.979416 46.171236 77.438886 46.359544 77.864462 46.480061 C 78.29757 46.600578 78.726911 46.660836 79.152486 46.660836 C 80.576092 46.660836 81.818923 45.97163 82.877212 44.593218 C 83.943034 43.203507 84.477828 41.636787 84.477828 39.893058 C 84.477828 38.431791 84.059785 37.320775 83.227465 36.560012 C 82.395145 35.795483 81.178677 35.411335 79.581828 35.411335 C 79.114825 35.411335 78.632757 35.467828 78.135625 35.580812 C 77.642259 35.686264 77.0924 35.859508 76.482283 36.104308 C 76.448388 36.605206 76.433323 37.136234 76.433323 37.689858 C 76.433323 38.239717 76.433323 39.079569 76.433323 40.216947 C 76.433323 41.813796 76.433323 43.003901 76.433323 43.783495 C 76.433323 44.566855 76.448388 45.278658 76.482283 45.918904 Z M 125.280336 28.485379 C 125.280336 33.426572 123.374663 38.258547 119.567081 42.988836 C 115.763266 47.719125 111.164792 50.886461 105.764128 52.48331 C 104.193642 52.48331 102.593027 52.415519 100.958516 52.28747 C 99.327771 52.163187 97.904165 52.001242 96.687698 51.790338 C 96.126541 46.773821 95.700966 42.017169 95.414738 37.520381 C 95.12851 33.02736 94.985396 28.820566 94.985396 24.903767 C 94.985396 23.593145 94.992929 22.263693 95.007993 20.907878 C 95.026824 19.555828 95.075784 18.203779 95.151107 16.859262 C 97.531316 15.755779 99.73075 14.964887 101.753174 14.490352 C 103.786897 14.004518 105.903476 13.759718 108.106676 13.759718 C 113.688115 13.759718 117.947635 15.021379 120.881469 17.548469 C 123.815303 20.075558 125.280336 23.721194 125.280336 28.485379 Z M 106.351648 20.113219 C 106.06542 23.491459 105.839451 26.982683 105.67374 30.594425 C 105.515562 34.198634 105.440239 37.938424 105.440239 41.817563 C 105.440239 42.600923 105.440239 43.195975 105.440239 43.602719 C 105.440239 44.009464 105.455303 44.374781 105.489199 44.694904 C 108.336411 43.203507 110.524546 41.064332 112.053605 38.277378 C 113.578897 35.482892 114.343426 32.251532 114.343426 28.590831 C 114.343426 25.995951 113.691882 23.924567 112.392558 22.380444 C 111.097002 20.832555 109.368337 20.060493 107.195266 20.060493 C 106.954233 20.060493 106.777223 20.060493 106.664239 20.060493 C 106.558786 20.060493 106.453334 20.079324 106.351648 20.113219 Z M 125.540201 44.800356 C 127.148348 44.408676 128.809222 44.186473 130.526588 44.137513 C 132.255253 44.084787 133.99145 44.178941 135.735179 44.423741 C 135.65609 46.133575 135.55817 47.688996 135.437653 49.097538 C 135.31337 50.502313 135.143893 51.89579 134.929222 53.274202 C 133.260816 53.458744 131.724225 53.549131 130.31945 53.549131 C 128.914675 53.549131 127.445875 53.439913 125.916816 53.225242 C 125.781235 51.376061 125.679549 49.865833 125.61929 48.694559 C 125.566564 47.519519 125.540201 46.223962 125.540201 44.800356 Z M 152.950267 12.912333 C 157.221085 12.912333 160.520236 14.309576 162.847719 17.107829 C 165.171436 19.891016 166.335177 23.845477 166.335177 28.967446 C 166.335177 31.735569 165.962328 34.552652 165.21663 37.418695 C 164.470931 40.27344 163.442771 42.804295 162.128384 45.007495 C 160.490107 47.647568 158.497811 49.651162 156.155264 51.022042 C 153.80895 52.38539 151.161344 53.067064 148.212446 53.067064 C 143.941628 53.067064 140.612348 51.421254 138.224606 48.133402 C 135.848163 44.841784 134.658059 40.39019 134.658059 34.774855 C 134.658059 28.342265 136.345296 23.092247 139.723536 19.021035 C 143.109308 14.949823 147.515707 12.912333 152.950267 12.912333 Z M 150.449541 46.129809 C 152.050156 46.129809 153.236495 45.030092 154.019855 42.834424 C 154.799449 40.627458 155.191129 36.981821 155.191129 31.897514 C 155.191129 27.521243 154.844642 24.417933 154.147904 22.587582 C 153.462464 20.757231 152.298723 19.842056 150.660446 19.842056 C 149.025935 19.842056 147.771806 21.017096 146.898058 23.367176 C 146.028077 25.71349 145.594969 29.016406 145.594969 33.275926 C 145.594969 37.332074 146.013012 40.484344 146.845332 42.744036 C 147.685184 44.999962 148.890354 46.129809 150.449541 46.129809 Z M 198.501896 49.654928 C 197.398413 50.792307 196.046363 51.805402 194.438216 52.690448 C 192.841367 53.583027 190.992185 54.328725 188.890671 54.93131 C 186.619681 49.564541 184.902315 45.753193 183.749872 43.497267 C 182.593663 41.241341 181.380961 39.169957 180.104235 37.28688 C 179.784112 37.358437 179.539312 37.418695 179.373601 37.471421 C 179.219189 37.520381 179.068543 37.58064 178.917897 37.652197 C 178.850106 40.213181 178.744653 42.713907 178.605306 45.150609 C 178.465958 47.583544 178.288949 49.990116 178.074278 52.377857 C 176.477429 52.377857 174.857983 52.313833 173.21594 52.182017 C 171.585195 52.061501 170.142759 51.892024 168.892396 51.673587 C 168.937589 50.008947 168.967719 48.766116 168.986549 47.952627 C 169.001614 47.127839 169.009146 46.36331 169.009146 45.659039 C 169.009146 41.135889 168.8585 36.424431 168.553442 31.520899 C 168.252149 26.6136 167.777614 21.280727 167.137368 15.518512 C 168.80954 14.102438 170.847029 12.987656 173.242303 12.170401 C 175.645109 11.345613 178.021552 10.935103 180.3641 10.935103 C 185.026598 10.935103 188.615742 11.933133 191.131533 13.929195 C 193.658622 15.917724 194.920283 18.708444 194.920283 22.301354 C 194.920283 24.463127 194.351594 26.489317 193.214216 28.379926 C 192.076837 30.266769 190.389601 31.954006 188.148739 33.445403 C 190.035582 35.607175 191.816973 38.006215 193.500443 40.646289 C 195.195213 43.275064 196.859853 46.280455 198.501896 49.654928 Z M 179.034647 30.986105 L 179.034647 31.208308 C 180.703053 30.564296 181.945884 29.588862 182.759373 28.27824 C 183.584161 26.95632 183.998438 25.284148 183.998438 23.250425 C 183.998438 21.265662 183.557798 19.717773 182.680284 18.618056 C 181.814069 17.514573 180.55994 16.964715 178.917897 16.964715 L 178.710758 16.964715 C 178.81621 20.444641 178.891533 23.208997 178.94426 25.257785 C 179.004518 27.295274 179.034647 29.204714 179.034647 30.986105 Z M 226.499482 33.226966 C 226.458054 36.60144 226.619999 39.915655 226.992848 43.173378 C 227.376996 46.427335 227.956983 49.617267 228.740343 52.743174 C 227.670756 53.029402 226.488183 53.259137 225.185094 53.43238 C 223.889537 53.613156 222.443334 53.741205 220.835187 53.808996 C 220.409611 52.92395 220.010399 52.012541 219.63755 51.074768 C 219.264701 50.129464 218.918214 49.172861 218.598091 48.212492 C 217.249808 49.850768 215.724516 51.078534 214.014682 51.89579 C 212.312381 52.713045 210.410473 53.11979 208.30896 53.11979 C 204.648258 53.11979 201.740788 51.771507 199.586548 49.071175 C 197.436074 46.36331 196.358954 42.698843 196.358954 38.081538 C 196.358954 31.148049 198.02736 25.299213 201.371705 20.542561 C 204.712283 15.778376 208.926609 13.394401 214.014682 13.394401 C 217.536036 13.394401 220.353119 14.418795 222.462165 16.467582 C 224.58251 18.508838 225.802743 21.35605 226.122866 25.009219 C 224.559913 25.513883 222.899039 25.890499 221.136479 26.142831 C 219.373919 26.383865 217.445648 26.508148 215.355433 26.508148 C 214.922325 24.014954 214.455322 22.274991 213.961956 21.284493 C 213.464824 20.286462 212.828344 19.78933 212.04875 19.78933 C 210.692935 19.78933 209.608283 21.16021 208.791027 23.90197 C 207.977538 26.636197 207.567027 30.259237 207.567027 34.774855 C 207.567027 38.254781 207.921046 40.796935 208.62155 42.405083 C 209.333353 44.001932 210.474498 44.800356 212.04875 44.800356 C 213.035482 44.800356 213.939359 44.468935 214.756615 43.809858 C 215.581402 43.150781 216.240479 42.216775 216.733845 41.011606 C 216.560602 39.908123 216.398658 38.80464 216.251778 37.704923 C 216.11243 36.60144 216.010744 35.497957 215.939187 34.39824 C 217.355261 34.00656 218.910682 33.716566 220.601685 33.524492 C 222.292688 33.324886 224.25862 33.226966 226.499482 33.226966 Z M 226.499482 33.226966 " stroke="#ffffff" stroke-width="11.46666" stroke-opacity="1" stroke-miterlimit="4"/><g fill="#008000" fill-opacity="1"><g transform="translate(139.694138, 205.912774)"><g><path d="M 37.171875 3.046875 C 35.878906 3.890625 34.335938 4.597656 32.546875 5.171875 C 30.765625 5.742188 28.632812 6.175781 26.15625 6.46875 C 25.9375 4.257812 25.632812 1.945312 25.25 -0.46875 C 24.863281 -2.882812 24.375 -5.347656 23.78125 -7.859375 C 21.425781 -7.816406 19.304688 -7.738281 17.421875 -7.625 C 15.546875 -7.519531 13.773438 -7.359375 12.109375 -7.140625 C 11.523438 -5.472656 10.914062 -3.882812 10.28125 -2.375 C 9.65625 -0.863281 9.03125 0.515625 8.40625 1.765625 C 6.601562 1.472656 4.898438 0.894531 3.296875 0.03125 C 1.691406 -0.832031 0.425781 -1.859375 -0.5 -3.046875 C 2.34375 -8.316406 4.8125 -13.632812 6.90625 -19 C 9.007812 -24.363281 11.207031 -31.117188 13.5 -39.265625 C 15.300781 -39.265625 16.929688 -39.179688 18.390625 -39.015625 C 19.847656 -38.859375 21.460938 -38.554688 23.234375 -38.109375 C 26.441406 -33.023438 29.222656 -26.976562 31.578125 -19.96875 C 33.941406 -12.957031 35.804688 -5.285156 37.171875 3.046875 Z M 18.09375 -26.609375 C 17.613281 -24.796875 17.078125 -22.875 16.484375 -20.84375 C 15.890625 -18.820312 15.265625 -16.757812 14.609375 -14.65625 C 15.859375 -14.84375 17.082031 -14.988281 18.28125 -15.09375 C 19.476562 -15.207031 20.6875 -15.285156 21.90625 -15.328125 C 21.28125 -17.390625 20.648438 -19.359375 20.015625 -21.234375 C 19.390625 -23.117188 18.75 -24.910156 18.09375 -26.609375 Z M 18.09375 -26.609375 "/></g></g></g><g fill="#008000" fill-opacity="1"><g transform="translate(173.04676, 205.912774)"><g><path d="M 34.453125 -14.765625 C 34.453125 -10.304688 32.75 -6.546875 29.34375 -3.484375 C 25.9375 -0.421875 21.757812 1.109375 16.8125 1.109375 C 15.007812 1.109375 13.175781 0.832031 11.3125 0.28125 C 9.445312 -0.269531 7.613281 -1.101562 5.8125 -2.21875 C 5.332031 -6.457031 4.972656 -10.84375 4.734375 -15.375 C 4.492188 -19.914062 4.375 -24.710938 4.375 -29.765625 C 4.375 -31.972656 4.378906 -33.628906 4.390625 -34.734375 C 4.410156 -35.835938 4.441406 -36.867188 4.484375 -37.828125 C 6.585938 -38.859375 8.78125 -39.648438 11.0625 -40.203125 C 13.34375 -40.765625 15.609375 -41.046875 17.859375 -41.046875 C 22.359375 -41.046875 25.785156 -40.257812 28.140625 -38.6875 C 30.503906 -37.125 31.6875 -34.867188 31.6875 -31.921875 C 31.6875 -30.109375 31.289062 -28.472656 30.5 -27.015625 C 29.707031 -25.554688 28.539062 -24.296875 27 -23.234375 C 29.351562 -22.535156 31.179688 -21.4375 32.484375 -19.9375 C 33.796875 -18.445312 34.453125 -16.722656 34.453125 -14.765625 Z M 20.90625 -30.359375 C 20.90625 -31.835938 20.5 -32.945312 19.6875 -33.6875 C 18.875 -34.425781 17.675781 -34.796875 16.09375 -34.796875 L 15.9375 -34.796875 C 15.75 -32.722656 15.585938 -30.753906 15.453125 -28.890625 C 15.328125 -27.035156 15.226562 -25.257812 15.15625 -23.5625 C 17.03125 -23.96875 18.457031 -24.757812 19.4375 -25.9375 C 20.414062 -27.125 20.90625 -28.597656 20.90625 -30.359375 Z M 14.984375 -6.3125 C 15.503906 -6.050781 15.984375 -5.851562 16.421875 -5.71875 C 16.867188 -5.59375 17.3125 -5.53125 17.75 -5.53125 C 19.226562 -5.53125 20.519531 -6.25 21.625 -7.6875 C 22.726562 -9.125 23.28125 -10.75 23.28125 -12.5625 C 23.28125 -14.070312 22.847656 -15.222656 21.984375 -16.015625 C 21.117188 -16.804688 19.859375 -17.203125 18.203125 -17.203125 C 17.722656 -17.203125 17.222656 -17.144531 16.703125 -17.03125 C 16.191406 -16.925781 15.617188 -16.742188 14.984375 -16.484375 C 14.953125 -15.960938 14.9375 -15.414062 14.9375 -14.84375 C 14.9375 -14.28125 14.9375 -13.40625 14.9375 -12.21875 C 14.9375 -10.5625 14.9375 -9.328125 14.9375 -8.515625 C 14.9375 -7.703125 14.953125 -6.96875 14.984375 -6.3125 Z M 14.984375 -6.3125 "/></g></g></g><g fill="#008000" fill-opacity="1"><g transform="translate(204.740031, 205.912774)"><g><path d="M 33.90625 -24.390625 C 33.90625 -19.265625 31.929688 -14.25 27.984375 -9.34375 C 24.035156 -4.4375 19.257812 -1.15625 13.65625 0.5 C 12.039062 0.5 10.382812 0.429688 8.6875 0.296875 C 6.988281 0.171875 5.515625 0 4.265625 -0.21875 C 3.671875 -5.414062 3.222656 -10.347656 2.921875 -15.015625 C 2.628906 -19.679688 2.484375 -24.039062 2.484375 -28.09375 C 2.484375 -29.457031 2.492188 -30.835938 2.515625 -32.234375 C 2.535156 -33.640625 2.582031 -35.046875 2.65625 -36.453125 C 5.125 -37.597656 7.410156 -38.414062 9.515625 -38.90625 C 11.617188 -39.40625 13.8125 -39.65625 16.09375 -39.65625 C 21.882812 -39.65625 26.300781 -38.34375 29.34375 -35.71875 C 32.382812 -33.101562 33.90625 -29.328125 33.90625 -24.390625 Z M 14.265625 -33.078125 C 13.972656 -29.578125 13.742188 -25.953125 13.578125 -22.203125 C 13.410156 -18.460938 13.328125 -14.582031 13.328125 -10.5625 C 13.328125 -9.75 13.328125 -9.128906 13.328125 -8.703125 C 13.328125 -8.285156 13.347656 -7.910156 13.390625 -7.578125 C 16.335938 -9.128906 18.601562 -11.347656 20.1875 -14.234375 C 21.769531 -17.128906 22.5625 -20.476562 22.5625 -24.28125 C 22.5625 -26.96875 21.890625 -29.113281 20.546875 -30.71875 C 19.203125 -32.320312 17.40625 -33.125 15.15625 -33.125 C 14.894531 -33.125 14.707031 -33.125 14.59375 -33.125 C 14.488281 -33.125 14.378906 -33.109375 14.265625 -33.078125 Z M 14.265625 -33.078125 "/></g></g></g><g fill="#008000" fill-opacity="1"><g transform="translate(235.880185, 205.912774)"><g><path d="M 3.046875 -7.46875 C 4.703125 -7.875 6.421875 -8.101562 8.203125 -8.15625 C 9.992188 -8.207031 11.796875 -8.109375 13.609375 -7.859375 C 13.535156 -6.085938 13.429688 -4.472656 13.296875 -3.015625 C 13.171875 -1.554688 13 -0.109375 12.78125 1.328125 C 11.039062 1.515625 9.441406 1.609375 7.984375 1.609375 C 6.535156 1.609375 5.015625 1.492188 3.421875 1.265625 C 3.273438 -0.648438 3.175781 -2.210938 3.125 -3.421875 C 3.070312 -4.640625 3.046875 -5.988281 3.046875 -7.46875 Z M 3.046875 -7.46875 "/></g></g></g><g fill="#008000" fill-opacity="1"><g transform="translate(246.997477, 205.912774)"><g><path d="M 20.359375 -40.546875 C 24.785156 -40.546875 28.203125 -39.097656 30.609375 -36.203125 C 33.023438 -33.304688 34.234375 -29.203125 34.234375 -23.890625 C 34.234375 -21.015625 33.847656 -18.09375 33.078125 -15.125 C 32.304688 -12.15625 31.238281 -9.53125 29.875 -7.25 C 28.175781 -4.519531 26.109375 -2.441406 23.671875 -1.015625 C 21.234375 0.398438 18.488281 1.109375 15.4375 1.109375 C 11.007812 1.109375 7.554688 -0.59375 5.078125 -4 C 2.609375 -7.414062 1.375 -12.035156 1.375 -17.859375 C 1.375 -24.535156 3.125 -29.984375 6.625 -34.203125 C 10.132812 -38.429688 14.710938 -40.546875 20.359375 -40.546875 Z M 17.75 -6.078125 C 19.414062 -6.078125 20.648438 -7.21875 21.453125 -9.5 C 22.265625 -11.789062 22.671875 -15.578125 22.671875 -20.859375 C 22.671875 -25.390625 22.3125 -28.601562 21.59375 -30.5 C 20.875 -32.40625 19.664062 -33.359375 17.96875 -33.359375 C 16.28125 -33.359375 14.984375 -32.140625 14.078125 -29.703125 C 13.171875 -27.265625 12.71875 -23.835938 12.71875 -19.421875 C 12.71875 -15.210938 13.148438 -11.9375 14.015625 -9.59375 C 14.890625 -7.25 16.132812 -6.078125 17.75 -6.078125 Z M 17.75 -6.078125 "/></g></g></g><g fill="#008000" fill-opacity="1"><g transform="translate(279.022604, 205.912774)"><g><path d="M 35.5625 -2.4375 C 34.414062 -1.25 33.015625 -0.195312 31.359375 0.71875 C 29.703125 1.644531 27.785156 2.421875 25.609375 3.046875 C 23.242188 -2.523438 21.460938 -6.476562 20.265625 -8.8125 C 19.066406 -11.15625 17.804688 -13.304688 16.484375 -15.265625 C 16.148438 -15.191406 15.898438 -15.125 15.734375 -15.0625 C 15.566406 -15.007812 15.410156 -14.945312 15.265625 -14.875 C 15.191406 -12.21875 15.082031 -9.625 14.9375 -7.09375 C 14.789062 -4.570312 14.601562 -2.078125 14.375 0.390625 C 12.71875 0.390625 11.039062 0.320312 9.34375 0.1875 C 7.644531 0.0625 6.15625 -0.109375 4.875 -0.328125 C 4.90625 -2.066406 4.929688 -3.359375 4.953125 -4.203125 C 4.972656 -5.046875 4.984375 -5.835938 4.984375 -6.578125 C 4.984375 -11.265625 4.820312 -16.148438 4.5 -21.234375 C 4.1875 -26.328125 3.703125 -31.859375 3.046875 -37.828125 C 4.773438 -39.304688 6.882812 -40.46875 9.375 -41.3125 C 11.863281 -42.164062 14.328125 -42.59375 16.765625 -42.59375 C 21.585938 -42.59375 25.304688 -41.554688 27.921875 -39.484375 C 30.546875 -37.421875 31.859375 -34.53125 31.859375 -30.8125 C 31.859375 -28.5625 31.265625 -26.457031 30.078125 -24.5 C 28.898438 -22.550781 27.148438 -20.800781 24.828125 -19.25 C 26.785156 -17 28.640625 -14.507812 30.390625 -11.78125 C 32.140625 -9.050781 33.863281 -5.9375 35.5625 -2.4375 Z M 15.375 -21.796875 L 15.375 -21.578125 C 17.101562 -22.234375 18.390625 -23.242188 19.234375 -24.609375 C 20.085938 -25.972656 20.515625 -27.707031 20.515625 -29.8125 C 20.515625 -31.875 20.0625 -33.476562 19.15625 -34.625 C 18.257812 -35.769531 16.960938 -36.34375 15.265625 -36.34375 L 15.046875 -36.34375 C 15.148438 -32.726562 15.226562 -29.859375 15.28125 -27.734375 C 15.34375 -25.617188 15.375 -23.640625 15.375 -21.796875 Z M 15.375 -21.796875 "/></g></g></g><g fill="#008000" fill-opacity="1"><g transform="translate(310.439301, 205.912774)"><g><path d="M 33.1875 -19.46875 C 33.144531 -15.96875 33.316406 -12.53125 33.703125 -9.15625 C 34.097656 -5.78125 34.703125 -2.46875 35.515625 0.78125 C 34.398438 1.070312 33.171875 1.304688 31.828125 1.484375 C 30.484375 1.671875 28.984375 1.800781 27.328125 1.875 C 26.878906 0.957031 26.460938 0.0078125 26.078125 -0.96875 C 25.691406 -1.945312 25.332031 -2.929688 25 -3.921875 C 23.601562 -2.222656 22.019531 -0.953125 20.25 -0.109375 C 18.476562 0.734375 16.503906 1.15625 14.328125 1.15625 C 10.523438 1.15625 7.507812 -0.242188 5.28125 -3.046875 C 3.050781 -5.847656 1.9375 -9.644531 1.9375 -14.4375 C 1.9375 -21.625 3.664062 -27.6875 7.125 -32.625 C 10.59375 -37.570312 14.96875 -40.046875 20.25 -40.046875 C 23.894531 -40.046875 26.8125 -38.984375 29 -36.859375 C 31.195312 -34.742188 32.460938 -31.785156 32.796875 -27.984375 C 31.171875 -27.472656 29.445312 -27.085938 27.625 -26.828125 C 25.800781 -26.566406 23.800781 -26.4375 21.625 -26.4375 C 21.1875 -29.019531 20.707031 -30.828125 20.1875 -31.859375 C 19.675781 -32.890625 19.015625 -33.40625 18.203125 -33.40625 C 16.796875 -33.40625 15.664062 -31.984375 14.8125 -29.140625 C 13.96875 -26.304688 13.546875 -22.546875 13.546875 -17.859375 C 13.546875 -14.242188 13.914062 -11.609375 14.65625 -9.953125 C 15.394531 -8.296875 16.578125 -7.46875 18.203125 -7.46875 C 19.234375 -7.46875 20.171875 -7.804688 21.015625 -8.484375 C 21.867188 -9.171875 22.550781 -10.140625 23.0625 -11.390625 C 22.875 -12.535156 22.707031 -13.675781 22.5625 -14.8125 C 22.414062 -15.957031 22.304688 -17.101562 22.234375 -18.25 C 23.710938 -18.65625 25.328125 -18.957031 27.078125 -19.15625 C 28.828125 -19.363281 30.863281 -19.46875 33.1875 -19.46875 Z M 33.1875 -19.46875 "/></g></g></g><path stroke-linecap="butt" transform="matrix(1.239079, 0, 0, 1.239079, 170.936141, 217.617451)" fill="none" stroke-linejoin="miter" d="M 42.806324 6.79667 C 43.039612 7.061483 43.455748 7.19389 44.048426 7.19389 C 44.196595 7.19389 44.360528 7.187585 44.533918 7.178127 C 44.71046 7.16867 44.912223 7.152907 45.139206 7.133992 C 45.145511 7.133992 45.151816 7.133992 45.158121 7.133992 C 45.148663 7.222263 45.145511 7.319992 45.145511 7.420873 C 45.145511 7.833856 45.126596 8.287822 45.088765 8.792229 C 45.054087 9.290331 45.016257 9.813653 44.975274 10.362196 C 44.937443 10.907586 44.918528 11.465586 44.918528 12.036196 C 44.918528 12.234806 44.965816 12.411348 45.060392 12.562671 C 45.013104 12.565823 44.962663 12.568976 44.90907 12.572128 C 44.515002 12.597349 44.016901 12.644637 43.414765 12.713993 C 43.083748 12.754976 42.837849 12.85901 42.67707 13.032399 C 42.519443 13.199484 42.437477 13.41701 42.437477 13.678671 C 42.437477 14.107417 42.620324 14.463654 42.979714 14.747383 C 43.342256 15.024807 43.931782 15.166671 44.751443 15.166671 C 44.943748 15.166671 45.202257 15.147756 45.526969 15.11623 C 45.85168 15.087857 46.236291 15.062637 46.677647 15.037417 C 47.119003 15.012196 47.595037 14.999586 48.108901 14.999586 C 48.821376 14.999586 49.33524 14.864027 49.650495 14.596061 C 49.965749 14.324942 50.123376 14.003383 50.123376 13.631383 C 50.123376 13.420162 50.072935 13.234162 49.972054 13.067077 C 49.874325 12.903145 49.688325 12.770738 49.414054 12.676162 C 49.146088 12.581586 48.755172 12.531145 48.244461 12.531145 C 47.967037 12.531145 47.711681 12.531145 47.481545 12.531145 C 47.506765 12.420806 47.519376 12.294704 47.519376 12.159145 C 47.519376 11.465586 47.541443 10.825619 47.585579 10.242399 C 47.632867 9.652873 47.677003 9.132704 47.714833 8.675585 C 47.755816 8.218466 47.777884 7.843314 47.777884 7.55328 C 47.777884 7.357822 47.733749 7.178127 47.651782 7.014195 C 47.777884 7.014195 47.910291 7.014195 48.04585 7.014195 C 48.638528 7.014195 49.130325 6.872331 49.52124 6.588602 C 49.912156 6.30172 50.110766 5.923415 50.110766 5.450534 C 50.110766 5.037551 49.968901 4.747517 49.688325 4.580432 C 49.404596 4.407042 48.944325 4.321923 48.304359 4.321923 C 47.929206 4.321923 47.50046 4.334534 47.014969 4.359754 C 46.529477 4.381822 46.006155 4.422805 45.44185 4.473245 C 44.880697 4.520534 44.300629 4.586737 43.701646 4.668703 C 43.320189 4.706534 43.017544 4.829483 42.790561 5.034398 C 42.566731 5.239313 42.453239 5.513585 42.453239 5.857212 C 42.453239 6.216602 42.569883 6.528703 42.806324 6.79667 Z M 53.143512 14.662264 C 53.474529 15.018501 53.849682 15.195044 54.26897 15.195044 C 54.530631 15.195044 54.745004 15.147756 54.915241 15.059485 C 55.088631 14.971213 55.214733 14.838807 55.296699 14.662264 C 55.38497 14.485722 55.425953 14.274501 55.425953 14.022298 C 55.425953 13.565179 55.444869 13.133281 55.479546 12.729755 C 55.526835 12.764433 55.574123 12.799111 55.621411 12.833789 C 56.053309 13.145891 56.535648 13.44223 57.05897 13.722806 C 57.585445 14.003383 58.118225 14.255586 58.654157 14.476264 C 59.190089 14.69379 59.688191 14.867179 60.148463 14.993281 C 60.611886 15.11623 60.983886 15.179281 61.264463 15.179281 C 61.816158 15.179281 62.235446 15.059485 62.52548 14.819891 C 62.815514 14.580298 62.960531 14.255586 62.960531 13.842603 C 62.960531 13.5904 62.869107 13.385484 62.689412 13.227857 C 62.509717 13.063925 62.159785 12.925213 61.639615 12.805416 C 61.069005 12.663552 60.470022 12.48701 59.842666 12.272637 C 59.218462 12.055111 58.597411 11.796603 57.985818 11.497111 C 58.647852 11.295348 59.246835 11.043145 59.789073 10.737348 C 60.328157 10.431552 60.801039 10.084772 61.201412 9.697009 C 61.604937 9.312399 61.910734 8.893111 62.128259 8.442297 C 62.342632 7.991483 62.449819 7.524907 62.449819 7.042568 C 62.449819 6.664263 62.399378 6.308025 62.301649 5.977008 C 62.200768 5.645991 62.039988 5.355957 61.81931 5.113212 C 61.598632 4.867313 61.318056 4.675008 60.977581 4.536296 C 60.637107 4.394432 60.227276 4.321923 59.744937 4.321923 C 59.161717 4.321923 58.594259 4.438567 58.045716 4.668703 C 57.494021 4.898839 56.983309 5.217246 56.516733 5.630229 C 56.185716 5.923415 55.879919 6.248127 55.599343 6.607517 C 55.429106 6.005381 55.224191 5.567178 54.981445 5.299212 C 54.678801 4.958737 54.246902 4.7885 53.682597 4.7885 C 53.203411 4.7885 52.881851 4.914601 52.721071 5.166805 C 52.560292 5.415856 52.538224 5.746873 52.64541 6.156703 C 52.787275 6.6485 52.916529 7.102466 53.036326 7.524907 C 53.156122 7.944195 53.253851 8.376094 53.329512 8.814297 C 53.405173 9.249348 53.433546 9.741145 53.414631 10.29284 C 53.15297 10.844535 52.957512 11.358399 52.834563 11.834433 C 52.708461 12.310467 52.64541 12.732908 52.64541 13.104908 C 52.64541 13.785857 52.812495 14.306027 53.143512 14.662264 Z M 56.188869 9.870399 C 56.255072 9.719077 56.324428 9.580365 56.396936 9.444806 C 56.683818 8.915178 56.989615 8.48328 57.320632 8.14911 C 57.654801 7.811788 57.97636 7.55328 58.288462 7.370432 C 58.597411 7.184432 58.865378 7.055178 59.092361 6.985822 C 59.316191 6.913314 59.464361 6.878636 59.536869 6.878636 C 59.644056 6.878636 59.722869 6.900703 59.767005 6.947992 C 59.81114 6.992127 59.833208 7.067788 59.833208 7.178127 C 59.833208 7.319992 59.74809 7.515449 59.584157 7.773958 C 59.420225 8.029314 59.152259 8.303585 58.780259 8.599924 C 58.408259 8.896263 57.919615 9.183145 57.314326 9.460568 C 56.980157 9.608738 56.605004 9.74745 56.188869 9.870399 Z M 73.858872 14.949146 C 74.12999 15.094162 74.435787 15.166671 74.776262 15.166671 C 75.488736 15.166671 75.844974 14.854569 75.844974 14.233518 C 75.844974 14.003383 75.794533 13.763789 75.687346 13.511586 C 75.583313 13.259383 75.450906 12.963043 75.296431 12.625721 C 75.192397 12.401891 75.094668 12.146535 74.99694 11.862806 C 75.160872 11.796603 75.305889 11.714637 75.438296 11.610603 C 75.79138 11.333179 75.967923 10.980094 75.967923 10.548196 C 75.967923 10.198263 75.841821 9.917687 75.595923 9.712772 C 75.387855 9.536229 75.019007 9.435348 74.498838 9.410128 C 74.360126 8.240534 74.180431 7.288466 73.959753 6.557076 C 73.723312 5.778398 73.389143 5.210941 72.960397 4.851551 C 72.528498 4.489008 71.942125 4.306161 71.201278 4.306161 C 70.479346 4.306161 69.807854 4.542601 69.18365 5.015483 C 68.817955 5.292907 68.490091 5.620771 68.206362 5.992771 C 68.146464 5.954941 68.086566 5.920263 68.023515 5.895042 C 67.783921 5.787856 67.553786 5.737415 67.333108 5.737415 C 67.080904 5.737415 66.894904 5.791008 66.775108 5.901347 C 66.655311 6.011686 66.595413 6.163008 66.595413 6.352161 C 66.595413 6.843958 66.560735 7.326297 66.488226 7.799178 C 66.422023 8.268907 66.340057 8.751246 66.242328 9.243043 C 66.172972 9.608738 66.106769 9.993348 66.04687 10.390568 C 66.018497 10.400026 65.990125 10.406331 65.964904 10.412636 C 65.652802 10.50406 65.422667 10.633314 65.271345 10.800399 C 65.120023 10.964331 65.047514 11.159789 65.047514 11.389925 C 65.047514 11.749314 65.176768 12.042501 65.435277 12.263179 C 65.551921 12.360908 65.700091 12.436569 65.876633 12.493315 C 65.876633 12.52484 65.876633 12.559518 65.876633 12.594196 C 65.876633 13.505281 66.00904 14.154705 66.273853 14.542467 C 66.538667 14.927078 66.932735 15.122535 67.456057 15.122535 C 67.765006 15.122535 67.995142 15.046874 68.146464 14.898705 C 68.297786 14.74423 68.392362 14.495179 68.433345 14.145247 C 68.509006 13.543111 68.594125 12.972501 68.688701 12.436569 C 68.814803 12.423959 68.94721 12.408196 69.079617 12.392433 C 69.549345 12.335687 70.053752 12.282094 70.58338 12.228501 C 71.097244 12.171755 71.633176 12.12762 72.191176 12.089789 C 72.260532 12.36406 72.339346 12.628874 72.424465 12.887382 C 72.601007 13.413857 72.812227 13.848908 73.061278 14.189383 C 73.322939 14.548773 73.590905 14.800976 73.858872 14.949146 Z M 71.746668 9.476331 C 70.983752 9.523619 70.264973 9.596128 69.590328 9.690704 C 69.50521 9.703314 69.420091 9.712772 69.338125 9.725382 C 69.435854 9.410128 69.536735 9.116941 69.640769 8.848975 C 69.886668 8.218466 70.132566 7.736127 70.378464 7.40511 C 70.624363 7.074093 70.860803 6.907009 71.078329 6.907009 C 71.147685 6.907009 71.207583 6.929076 71.254871 6.976365 C 71.308464 7.0205 71.358905 7.124534 71.406193 7.285314 C 71.456634 7.442941 71.510227 7.704602 71.56382 8.067144 C 71.617414 8.413924 71.680464 8.883653 71.746668 9.476331 Z M 80.119822 14.618129 C 80.337347 15.034264 80.690432 15.242332 81.182229 15.242332 C 81.48172 15.242332 81.711856 15.169824 81.878941 15.021654 C 82.046025 14.876637 82.172127 14.608671 82.260398 14.217756 C 82.443246 13.404399 82.708059 12.572128 83.057992 11.720942 C 83.411077 10.869755 83.852433 10.046941 84.38206 9.255653 C 84.91484 8.464365 85.545348 7.755043 86.276738 7.133992 C 86.478501 6.944839 86.632975 6.765144 86.743314 6.601212 C 86.853653 6.43728 86.932467 6.273347 86.976603 6.112568 C 87.023891 5.951788 87.045959 5.781551 87.045959 5.598703 C 87.045959 5.188873 86.954535 4.864161 86.77484 4.630873 C 86.591992 4.394432 86.336636 4.277788 86.005619 4.277788 C 85.847992 4.277788 85.690365 4.312466 85.539043 4.378669 C 85.390873 4.44172 85.204873 4.558364 84.984195 4.725449 C 84.353687 5.217246 83.761009 5.809924 83.209314 6.503483 C 82.871992 6.922771 82.556737 7.357822 82.263551 7.808636 C 82.150059 7.647856 82.042873 7.499687 81.938839 7.36728 C 81.765449 7.140297 81.592059 6.922771 81.421822 6.711551 C 81.248432 6.503483 81.068737 6.270195 80.882737 6.014839 C 80.69989 5.75633 80.504432 5.441076 80.293212 5.059618 C 80.110364 4.738059 79.914906 4.533144 79.706839 4.451178 C 79.495618 4.366059 79.27494 4.321923 79.044805 4.321923 C 78.742161 4.321923 78.496262 4.438567 78.30711 4.668703 C 78.114804 4.898839 78.020228 5.19833 78.020228 5.57033 C 78.020228 5.882432 78.064364 6.147246 78.149482 6.367924 C 78.234601 6.588602 78.351245 6.799822 78.502567 6.998432 C 78.754771 7.348365 78.978601 7.641551 79.180364 7.871687 C 79.382127 8.101822 79.583889 8.338263 79.788805 8.577856 C 79.996873 8.81745 80.227008 9.116941 80.479212 9.473179 C 80.621076 9.671789 80.778703 9.905077 80.952093 10.176196 C 80.832296 10.437857 80.718805 10.699518 80.614771 10.961179 C 80.318432 11.708331 80.110364 12.386128 79.990568 12.997721 C 79.861313 13.662908 79.905449 14.201993 80.119822 14.618129 Z M 80.119822 14.618129 " stroke="#ffffff" stroke-width="3.950468" stroke-opacity="1" stroke-miterlimit="4"/><g fill="#000000" fill-opacity="1"><g transform="translate(223.016184, 236.203638)"><g><path d="M 2.5 -9.671875 C 1.757812 -9.671875 1.242188 -9.832031 0.953125 -10.15625 C 0.660156 -10.488281 0.515625 -10.878906 0.515625 -11.328125 C 0.515625 -11.753906 0.65625 -12.09375 0.9375 -12.34375 C 1.21875 -12.601562 1.59375 -12.757812 2.0625 -12.8125 C 2.8125 -12.90625 3.535156 -12.984375 4.234375 -13.046875 C 4.929688 -13.109375 5.578125 -13.15625 6.171875 -13.1875 C 6.773438 -13.21875 7.304688 -13.234375 7.765625 -13.234375 C 8.566406 -13.234375 9.140625 -13.125 9.484375 -12.90625 C 9.835938 -12.695312 10.015625 -12.34375 10.015625 -11.84375 C 10.015625 -11.25 9.769531 -10.773438 9.28125 -10.421875 C 8.800781 -10.066406 8.191406 -9.890625 7.453125 -9.890625 C 6.910156 -9.890625 6.414062 -9.882812 5.96875 -9.875 C 5.53125 -9.863281 5.132812 -9.84375 4.78125 -9.8125 C 4.4375 -9.789062 4.125 -9.769531 3.84375 -9.75 C 3.570312 -9.726562 3.328125 -9.707031 3.109375 -9.6875 C 2.890625 -9.675781 2.6875 -9.671875 2.5 -9.671875 Z M 5.609375 -2.234375 C 5.003906 -2.234375 4.515625 -2.363281 4.140625 -2.625 C 3.765625 -2.882812 3.578125 -3.234375 3.578125 -3.671875 C 3.578125 -4.378906 3.601562 -5.070312 3.65625 -5.75 C 3.707031 -6.425781 3.753906 -7.070312 3.796875 -7.6875 C 3.835938 -8.3125 3.859375 -8.878906 3.859375 -9.390625 C 3.859375 -9.898438 3.945312 -10.28125 4.125 -10.53125 C 4.3125 -10.78125 4.640625 -10.90625 5.109375 -10.90625 C 5.648438 -10.90625 6.117188 -10.742188 6.515625 -10.421875 C 6.921875 -10.097656 7.125 -9.703125 7.125 -9.234375 C 7.125 -8.867188 7.097656 -8.398438 7.046875 -7.828125 C 6.992188 -7.265625 6.9375 -6.617188 6.875 -5.890625 C 6.820312 -5.171875 6.796875 -4.378906 6.796875 -3.515625 C 6.796875 -2.660156 6.398438 -2.234375 5.609375 -2.234375 Z M 3.375 0.203125 C 2.351562 0.203125 1.617188 0.03125 1.171875 -0.3125 C 0.722656 -0.664062 0.5 -1.109375 0.5 -1.640625 C 0.5 -1.960938 0.597656 -2.226562 0.796875 -2.4375 C 0.992188 -2.65625 1.300781 -2.785156 1.71875 -2.828125 C 2.457031 -2.921875 3.070312 -2.984375 3.5625 -3.015625 C 4.0625 -3.046875 4.503906 -3.0625 4.890625 -3.0625 C 5.285156 -3.070312 5.695312 -3.070312 6.125 -3.0625 C 6.550781 -3.0625 7.078125 -3.0625 7.703125 -3.0625 C 8.335938 -3.0625 8.820312 -3 9.15625 -2.875 C 9.488281 -2.757812 9.71875 -2.597656 9.84375 -2.390625 C 9.96875 -2.191406 10.03125 -1.960938 10.03125 -1.703125 C 10.03125 -1.234375 9.832031 -0.832031 9.4375 -0.5 C 9.050781 -0.164062 8.414062 0 7.53125 0 C 6.894531 0 6.300781 0.015625 5.75 0.046875 C 5.207031 0.078125 4.734375 0.109375 4.328125 0.140625 C 3.929688 0.179688 3.613281 0.203125 3.375 0.203125 Z M 3.375 0.203125 "/></g></g></g><g fill="#000000" fill-opacity="1"><g transform="translate(235.273527, 236.203638)"><g><path d="M 2.90625 0.25 C 2.382812 0.25 1.914062 0.03125 1.5 -0.40625 C 1.09375 -0.851562 0.890625 -1.5 0.890625 -2.34375 C 0.890625 -2.800781 0.96875 -3.328125 1.125 -3.921875 C 1.28125 -4.515625 1.519531 -5.148438 1.84375 -5.828125 C 1.863281 -6.515625 1.828125 -7.128906 1.734375 -7.671875 C 1.648438 -8.210938 1.53125 -8.742188 1.375 -9.265625 C 1.226562 -9.785156 1.066406 -10.347656 0.890625 -10.953125 C 0.753906 -11.460938 0.785156 -11.875 0.984375 -12.1875 C 1.179688 -12.5 1.582031 -12.65625 2.1875 -12.65625 C 2.875 -12.65625 3.40625 -12.441406 3.78125 -12.015625 C 4.164062 -11.597656 4.476562 -10.847656 4.71875 -9.765625 L 4.15625 -9.84375 C 4.601562 -10.507812 5.113281 -11.097656 5.6875 -11.609375 C 6.269531 -12.117188 6.898438 -12.515625 7.578125 -12.796875 C 8.265625 -13.085938 8.96875 -13.234375 9.6875 -13.234375 C 10.289062 -13.234375 10.800781 -13.144531 11.21875 -12.96875 C 11.644531 -12.800781 11.992188 -12.5625 12.265625 -12.25 C 12.535156 -11.945312 12.734375 -11.585938 12.859375 -11.171875 C 12.984375 -10.765625 13.046875 -10.328125 13.046875 -9.859375 C 13.046875 -9.265625 12.910156 -8.6875 12.640625 -8.125 C 12.378906 -7.5625 12 -7.039062 11.5 -6.5625 C 11 -6.09375 10.414062 -5.664062 9.75 -5.28125 C 9.082031 -4.90625 8.335938 -4.59375 7.515625 -4.34375 C 8.273438 -3.96875 9.039062 -3.644531 9.8125 -3.375 C 10.59375 -3.113281 11.335938 -2.894531 12.046875 -2.71875 C 12.691406 -2.570312 13.125 -2.398438 13.34375 -2.203125 C 13.570312 -2.003906 13.6875 -1.75 13.6875 -1.4375 C 13.6875 -0.925781 13.503906 -0.519531 13.140625 -0.21875 C 12.773438 0.0703125 12.253906 0.21875 11.578125 0.21875 C 11.222656 0.21875 10.757812 0.140625 10.1875 -0.015625 C 9.625 -0.171875 9.007812 -0.382812 8.34375 -0.65625 C 7.675781 -0.925781 7.015625 -1.234375 6.359375 -1.578125 C 5.710938 -1.929688 5.117188 -2.300781 4.578125 -2.6875 C 4.046875 -3.070312 3.632812 -3.457031 3.34375 -3.84375 C 3.195312 -4.039062 3.128906 -4.300781 3.140625 -4.625 C 3.148438 -4.945312 3.222656 -5.25 3.359375 -5.53125 C 3.492188 -5.8125 3.679688 -5.972656 3.921875 -6.015625 C 5.015625 -6.242188 5.9375 -6.523438 6.6875 -6.859375 C 7.4375 -7.203125 8.039062 -7.554688 8.5 -7.921875 C 8.957031 -8.296875 9.289062 -8.640625 9.5 -8.953125 C 9.707031 -9.273438 9.8125 -9.519531 9.8125 -9.6875 C 9.8125 -9.820312 9.78125 -9.914062 9.71875 -9.96875 C 9.664062 -10.03125 9.570312 -10.0625 9.4375 -10.0625 C 9.34375 -10.0625 9.15625 -10.019531 8.875 -9.9375 C 8.601562 -9.851562 8.273438 -9.691406 7.890625 -9.453125 C 7.503906 -9.222656 7.101562 -8.898438 6.6875 -8.484375 C 6.28125 -8.066406 5.898438 -7.53125 5.546875 -6.875 C 5.191406 -6.226562 4.898438 -5.4375 4.671875 -4.5 C 4.453125 -3.570312 4.34375 -2.476562 4.34375 -1.21875 C 4.34375 -0.90625 4.289062 -0.640625 4.1875 -0.421875 C 4.082031 -0.203125 3.921875 -0.0351562 3.703125 0.078125 C 3.492188 0.191406 3.226562 0.25 2.90625 0.25 Z M 2.90625 0.25 "/></g></g></g><g fill="#000000" fill-opacity="1"><g transform="translate(251.08825, 236.203638)"><g><path d="M 12.5 0.203125 C 12.082031 0.203125 11.707031 0.113281 11.375 -0.0625 C 11.039062 -0.238281 10.707031 -0.550781 10.375 -1 C 10.070312 -1.425781 9.8125 -1.960938 9.59375 -2.609375 C 9.375 -3.265625 9.195312 -3.957031 9.0625 -4.6875 C 8.9375 -5.425781 8.835938 -6.113281 8.765625 -6.75 C 8.671875 -7.53125 8.585938 -8.144531 8.515625 -8.59375 C 8.453125 -9.039062 8.390625 -9.363281 8.328125 -9.5625 C 8.265625 -9.757812 8.203125 -9.882812 8.140625 -9.9375 C 8.078125 -10 8.003906 -10.03125 7.921875 -10.03125 C 7.648438 -10.03125 7.359375 -9.820312 7.046875 -9.40625 C 6.742188 -9 6.441406 -8.40625 6.140625 -7.625 C 5.835938 -6.84375 5.554688 -5.894531 5.296875 -4.78125 C 5.035156 -3.675781 4.816406 -2.4375 4.640625 -1.0625 C 4.585938 -0.625 4.46875 -0.3125 4.28125 -0.125 C 4.09375 0.0625 3.8125 0.15625 3.4375 0.15625 C 2.78125 0.15625 2.285156 -0.0820312 1.953125 -0.5625 C 1.628906 -1.039062 1.46875 -1.847656 1.46875 -2.984375 C 1.46875 -3.785156 1.515625 -4.523438 1.609375 -5.203125 C 1.703125 -5.878906 1.804688 -6.519531 1.921875 -7.125 C 2.046875 -7.738281 2.148438 -8.335938 2.234375 -8.921875 C 2.328125 -9.515625 2.375 -10.113281 2.375 -10.71875 C 2.375 -10.957031 2.445312 -11.144531 2.59375 -11.28125 C 2.738281 -11.414062 2.96875 -11.484375 3.28125 -11.484375 C 3.550781 -11.484375 3.832031 -11.414062 4.125 -11.28125 C 4.425781 -11.15625 4.703125 -10.910156 4.953125 -10.546875 L 3.703125 -10.125 C 4.179688 -11.039062 4.804688 -11.789062 5.578125 -12.375 C 6.347656 -12.957031 7.179688 -13.25 8.078125 -13.25 C 8.992188 -13.25 9.71875 -13.023438 10.25 -12.578125 C 10.78125 -12.128906 11.191406 -11.421875 11.484375 -10.453125 C 11.785156 -9.492188 12.019531 -8.226562 12.1875 -6.65625 C 12.28125 -5.8125 12.414062 -5.085938 12.59375 -4.484375 C 12.769531 -3.878906 12.953125 -3.363281 13.140625 -2.9375 C 13.335938 -2.519531 13.5 -2.15625 13.625 -1.84375 C 13.757812 -1.53125 13.828125 -1.234375 13.828125 -0.953125 C 13.828125 -0.179688 13.382812 0.203125 12.5 0.203125 Z M 2.5 -2.984375 C 1.78125 -2.984375 1.257812 -3.117188 0.9375 -3.390625 C 0.613281 -3.660156 0.453125 -4.019531 0.453125 -4.46875 C 0.453125 -4.757812 0.539062 -5.003906 0.71875 -5.203125 C 0.90625 -5.410156 1.191406 -5.570312 1.578125 -5.6875 C 2.890625 -6.039062 4.390625 -6.335938 6.078125 -6.578125 C 7.765625 -6.816406 9.675781 -6.9375 11.8125 -6.9375 C 12.644531 -6.9375 13.210938 -6.804688 13.515625 -6.546875 C 13.828125 -6.296875 13.984375 -5.953125 13.984375 -5.515625 C 13.984375 -4.984375 13.765625 -4.546875 13.328125 -4.203125 C 12.890625 -3.859375 12.316406 -3.6875 11.609375 -3.6875 C 10.835938 -3.6875 10.09375 -3.660156 9.375 -3.609375 C 8.65625 -3.566406 7.960938 -3.507812 7.296875 -3.4375 C 6.640625 -3.375 6.019531 -3.304688 5.4375 -3.234375 C 4.851562 -3.160156 4.316406 -3.097656 3.828125 -3.046875 C 3.335938 -3.003906 2.894531 -2.984375 2.5 -2.984375 Z M 2.5 -2.984375 "/></g></g></g><g fill="#000000" fill-opacity="1"><g transform="translate(267.34997, 236.203638)"><g><path d="M 4.171875 0.296875 C 3.566406 0.296875 3.128906 0.0390625 2.859375 -0.46875 C 2.585938 -0.988281 2.535156 -1.660156 2.703125 -2.484375 C 2.847656 -3.234375 3.101562 -4.070312 3.46875 -5 C 3.84375 -5.925781 4.300781 -6.863281 4.84375 -7.8125 C 5.394531 -8.769531 6.007812 -9.675781 6.6875 -10.53125 C 7.375 -11.382812 8.109375 -12.117188 8.890625 -12.734375 C 9.160156 -12.941406 9.390625 -13.085938 9.578125 -13.171875 C 9.765625 -13.253906 9.957031 -13.296875 10.15625 -13.296875 C 10.570312 -13.296875 10.890625 -13.148438 11.109375 -12.859375 C 11.328125 -12.566406 11.4375 -12.164062 11.4375 -11.65625 C 11.4375 -11.425781 11.410156 -11.210938 11.359375 -11.015625 C 11.304688 -10.816406 11.210938 -10.613281 11.078125 -10.40625 C 10.941406 -10.207031 10.75 -9.988281 10.5 -9.75 C 9.59375 -8.976562 8.804688 -8.097656 8.140625 -7.109375 C 7.484375 -6.128906 6.9375 -5.113281 6.5 -4.0625 C 6.070312 -3.007812 5.742188 -1.976562 5.515625 -0.96875 C 5.398438 -0.488281 5.238281 -0.160156 5.03125 0.015625 C 4.832031 0.203125 4.546875 0.296875 4.171875 0.296875 Z M 5.515625 -4.515625 C 5.273438 -4.515625 5.0625 -4.5625 4.875 -4.65625 C 4.695312 -4.757812 4.550781 -4.910156 4.4375 -5.109375 C 4 -5.828125 3.617188 -6.40625 3.296875 -6.84375 C 2.984375 -7.289062 2.695312 -7.660156 2.4375 -7.953125 C 2.1875 -8.253906 1.9375 -8.546875 1.6875 -8.828125 C 1.445312 -9.117188 1.171875 -9.484375 0.859375 -9.921875 C 0.671875 -10.171875 0.523438 -10.429688 0.421875 -10.703125 C 0.316406 -10.972656 0.265625 -11.300781 0.265625 -11.6875 C 0.265625 -12.144531 0.378906 -12.515625 0.609375 -12.796875 C 0.847656 -13.085938 1.15625 -13.234375 1.53125 -13.234375 C 1.8125 -13.234375 2.082031 -13.179688 2.34375 -13.078125 C 2.601562 -12.972656 2.847656 -12.722656 3.078125 -12.328125 C 3.335938 -11.847656 3.582031 -11.445312 3.8125 -11.125 C 4.039062 -10.8125 4.257812 -10.523438 4.46875 -10.265625 C 4.6875 -10.003906 4.898438 -9.734375 5.109375 -9.453125 C 5.328125 -9.179688 5.554688 -8.859375 5.796875 -8.484375 C 6.046875 -8.109375 6.3125 -7.632812 6.59375 -7.0625 C 6.71875 -6.820312 6.78125 -6.554688 6.78125 -6.265625 C 6.78125 -5.972656 6.726562 -5.691406 6.625 -5.421875 C 6.53125 -5.160156 6.382812 -4.941406 6.1875 -4.765625 C 6 -4.597656 5.773438 -4.515625 5.515625 -4.515625 Z M 5.515625 -4.515625 "/></g></g></g></svg>